# xmcd
#
# Track frame offsets: 
#        150
#        11017
#        25909
#        36406
#        49564
#        66176
#        83757
#        98670
#        118845
#        133503
#        149948
#        164352
#
# Disc length: 2517 seconds
#
# Revision: 0
# Processed by: cddbd v1.5.2PL0 Copyright (c) Steve Scherf et al.
# Submitted via: ExactAudioCopy v0.90b4
#
DISCID=a609d30c
DTITLE=Candye Kane - Burlesque Swing
DYEAR=1992
DGENRE=Swing
TTITLE0=Voodo Voodo
TTITLE1=Big Sliding Thing
TTITLE2=Club Of The Foolish Hearts
TTITLE3=Big 10 Inch Record
TTITLE4=Old Time Jazz
TTITLE5=Put It All In There
TTITLE6=Press My Buttons
TTITLE7=Everybody Needs Love
TTITLE8=Baby Doll
TTITLE9=I'm So In Love
TTITLE10=The Meat Song
TTITLE11=Boogie Woogie Country Girl
EXTD=
EXTT0=
EXTT1=
EXTT2=
EXTT3=
EXTT4=
EXTT5=
EXTT6=
EXTT7=
EXTT8=
EXTT9=
EXTT10=
EXTT11=
PLAYORDER=
